<svg width="24" height="24" viewBox="0 0 24 24" fill="none" xmlns="http://www.w3.org/2000/svg">
<path d="M23 18C21.624 18 21.4649 16.5 19.3415 16.5C17.2088 16.5 17.0421 18 15.6708 18C14.3107 18 14.1261 16.5 12 16.5C9.89615 16.5 9.68126 18 8.34152 18C6.95925 18 6.80928 16.5 4.67076 16.5C2.53229 16.5 2.37976 18 1 18V14.25C1 13.0078 2.0558 12 3.35714 12H4.14286V5.25H7.28571V12H10.4286V5.25H13.5714V12H16.7143V5.25H19.8571V12H20.6429C21.9442 12 23 13.0078 23 14.25V18ZM23 24H1V19.5C3.12909 19.5 3.29659 18 4.67076 18C6.04335 18 6.2055 19.5 8.34152 19.5C10.4454 19.5 10.6602 18 12 18C13.3823 18 13.5322 19.5 15.6708 19.5C17.7999 19.5 17.9674 18 19.3415 18C20.6914 18 20.8762 19.5 23 19.5V24ZM5.71429 4.5C4.84263 4.5 4.14286 3.83203 4.14286 3C4.14286 1.54688 5.71429 1.92188 5.71429 0C6.30357 0 7.28571 1.38281 7.28571 2.625C7.28571 3.86719 6.58594 4.5 5.71429 4.5ZM12 4.5C11.1283 4.5 10.4286 3.83203 10.4286 3C10.4286 1.54688 12 1.92188 12 0C12.5893 0 13.5714 1.38281 13.5714 2.625C13.5714 3.86719 12.8717 4.5 12 4.5ZM18.2857 4.5C17.4141 4.5 16.7143 3.83203 16.7143 3C16.7143 1.54688 18.2857 1.92188 18.2857 0C18.875 0 19.8571 1.38281 19.8571 2.625C19.8571 3.86719 19.1574 4.5 18.2857 4.5Z" fill="black"/>
</svg>
