<svg viewBox="0 0 24 24" fill="currentColor" xmlns="http://www.w3.org/2000/svg">
  <path d="M8.03231 22C9.01812 22 9.81727 21.2538 9.81727 20.3333C9.81727 19.4129 9.01812 18.6667 8.03231 18.6667C7.04651 18.6667 6.24735 19.4129 6.24735 20.3333C6.24735 21.2538 7.04651 22 8.03231 22Z" />
  <path d="M20.527 22C21.5128 22 22.312 21.2538 22.312 20.3333C22.312 19.4129 21.5128 18.6667 20.527 18.6667C19.5412 18.6667 18.7421 19.4129 18.7421 20.3333C18.7421 21.2538 19.5412 22 20.527 22Z" />
  <path d="M23.6953 4.95729C23.5699 4.81409 23.412 4.69875 23.2329 4.61965C23.0538 4.54056 22.8581 4.49968 22.66 4.5H5.68342L5.34149 2.68854C5.30503 2.49559 5.19692 2.3208 5.03615 2.19488C4.87538 2.06896 4.67224 1.99996 4.4624 2H0.892479C0.655779 2 0.428773 2.0878 0.261401 2.24408C0.0940287 2.40036 0 2.61232 0 2.83333C0 3.05435 0.0940287 3.26631 0.261401 3.42259C0.428773 3.57887 0.655779 3.66667 0.892479 3.66667H3.71383L6.26074 17.1448C6.2972 17.3377 6.40531 17.5125 6.56608 17.6385C6.72685 17.7644 6.92999 17.8334 7.13983 17.8333H21.4195C21.6562 17.8333 21.8832 17.7455 22.0506 17.5893C22.218 17.433 22.312 17.221 22.312 17C22.312 16.779 22.218 16.567 22.0506 16.4107C21.8832 16.2545 21.6562 16.1667 21.4195 16.1667H7.8884L7.5738 14.5H21.0536C21.3631 14.4996 21.663 14.3994 21.9024 14.2163C22.1419 14.0333 22.3063 13.7786 22.3678 13.4953L23.9742 5.99531C24.0129 5.8138 24.008 5.62653 23.9598 5.44702C23.9115 5.26751 23.8212 5.10024 23.6953 4.95729Z" />
</svg>
