<svg width="24" height="24" viewBox="0 0 24 24" fill="none" xmlns="http://www.w3.org/2000/svg">
<path d="M5.95781 6.86719C6.01875 7.22813 6.33281 7.5 6.70781 7.5H7.48125C7.94063 7.5 8.30625 7.10156 8.24531 6.65625C8.06719 5.33437 7.47656 4.11563 6.52969 3.15469C5.85469 2.46563 5.42344 1.59375 5.29219 0.646875C5.24062 0.276563 4.92188 0 4.5375 0H3.76875C3.30938 0 2.95312 0.398438 3.00469 0.84375C3.1875 2.33906 3.84844 3.71719 4.90781 4.8C5.47031 5.37188 5.83125 6.08906 5.95781 6.86719ZM11.2078 6.86719C11.2688 7.22813 11.5828 7.5 11.9578 7.5H12.7313C13.1906 7.5 13.5562 7.10156 13.4953 6.65625C13.3172 5.33437 12.7266 4.11563 11.7797 3.15469C11.1047 2.46563 10.6734 1.59375 10.5422 0.646875C10.4906 0.276563 10.1719 0 9.7875 0H9.01875C8.55937 0 8.19844 0.398438 8.25469 0.84375C8.4375 2.33906 9.09844 3.71719 10.1578 4.8C10.7203 5.37188 11.0813 6.08906 11.2078 6.86719ZM18.75 9H1.5C0.670312 9 0 9.67031 0 10.5V19.5C0 21.9844 2.01562 24 4.5 24H13.5C15.9844 24 18 21.9844 18 19.5H18.75C21.6469 19.5 24 17.1469 24 14.25C24 11.3531 21.6469 9 18.75 9ZM18.75 16.5H18V12H18.75C19.9922 12 21 13.0078 21 14.25C21 15.4922 19.9922 16.5 18.75 16.5Z" fill="black"/>
</svg>
