<svg viewBox="0 0 24 24" fill="currentColor" xmlns="http://www.w3.org/2000/svg">
  <path d="M18.75 7.51369H18.7059C18.8145 6.56929 18.722 5.61264 18.4345 4.70647C18.147 3.8003 17.6711 2.96509 17.0379 2.25561C16.4046 1.54613 15.6285 0.97841 14.7603 0.589682C13.8921 0.200954 12.9514 0 12 0C11.0486 0 10.1079 0.200954 9.23973 0.589682C8.37152 0.97841 7.59535 1.54613 6.96214 2.25561C6.32893 2.96509 5.85299 3.8003 5.56551 4.70647C5.27804 5.61264 5.18553 6.56929 5.29406 7.51369H5.25C4.65326 7.51369 4.08097 7.75054 3.65901 8.17214C3.23705 8.59374 3 9.16556 3 9.7618C3 10.358 3.23705 10.9298 3.65901 11.3514C4.08097 11.7731 4.65326 12.0099 5.25 12.0099H18.75C19.3467 12.0099 19.919 11.7731 20.341 11.3514C20.7629 10.9298 21 10.358 21 9.7618C21 9.16556 20.7629 8.59374 20.341 8.17214C19.919 7.75054 19.3467 7.51369 18.75 7.51369ZM10.6584 23.1423C10.7767 23.3983 10.9659 23.6152 11.2036 23.7672C11.4414 23.9192 11.7177 24 12 24C12.2823 24 12.5586 23.9192 12.7964 23.7672C13.0341 23.6152 13.2233 23.3983 13.3416 23.1423L18 13.5086H6L10.6584 23.1423Z" />
</svg>