<svg width="24" height="24" viewBox="0 0 24 24" fill="none" xmlns="http://www.w3.org/2000/svg">
<g id="brand/logo">
<g id="vector">
<path d="M11.0137 16.6172V12.8184H13.0352C13.9596 12.8509 14.4219 13.5052 14.4219 14.7812C14.4219 15.3672 14.2884 15.8197 14.0215 16.1387C13.7546 16.4577 13.3639 16.6172 12.8496 16.6172H11.0137Z" fill="black"/>
<path d="M12.5078 10.7285H11.0137V7.17383H12.5371C13.123 7.17383 13.5462 7.3138 13.8066 7.59375C14.0671 7.8737 14.1973 8.33594 14.1973 8.98047C14.1973 10.1458 13.6341 10.7285 12.5078 10.7285Z" fill="black"/>
<path fill-rule="evenodd" clip-rule="evenodd" d="M4 0C1.79086 0 0 1.79086 0 4V20C0 22.2091 1.79086 24 4 24H20C22.2091 24 24 22.2091 24 20V4C24 1.79086 22.2091 0 20 0H4ZM8.14258 4.78125V19H12.8496C14.2884 19 15.3854 18.6484 16.1406 17.9453C16.9023 17.2422 17.2832 16.2005 17.2832 14.8203C17.2832 14.013 17.1107 13.3359 16.7656 12.7891C16.4206 12.2357 15.929 11.8678 15.291 11.6855C15.8444 11.4447 16.2806 11.0638 16.5996 10.543C16.9186 10.0221 17.0781 9.40039 17.0781 8.67773C17.0781 7.40169 16.6908 6.4349 15.916 5.77734C15.1478 5.11328 14.0215 4.78125 12.5371 4.78125H8.14258Z" fill="black"/>
</g>
</g>
</svg>
