<svg xmlns="http://www.w3.org/2000/svg">
  <symbol id="i_restobar" viewBox="0 0 24 24">
    <path d="M11.9957 0.712565C12.0303 0.932877 12.6923 5.14224 12.6923 6.75005C12.6923 9.2016 11.4894 10.95 9.71106 11.6532L10.2692 22.8141C10.2995 23.4563 9.82788 24 9.23077 24H6.46154C5.86875 24 5.39279 23.4609 5.42308 22.8141L5.98125 11.6532C4.19856 10.95 3 9.19692 3 6.75005C3 5.13755 3.66202 0.932877 3.69663 0.712565C3.8351 -0.238995 5.65673 -0.253057 5.76923 0.764127V7.38286C5.82548 7.54223 6.4226 7.53286 6.46154 7.38286C6.52212 6.19693 6.80337 0.857877 6.80769 0.736003C6.95048 -0.238995 8.74183 -0.238995 8.88029 0.736003C8.88894 0.862565 9.16587 6.19693 9.22644 7.38286C9.26538 7.53286 9.86683 7.54223 9.91875 7.38286V0.764127C10.0312 -0.24837 11.8572 -0.238995 11.9957 0.712565ZM17.1534 14.1047L16.5043 22.7813C16.4524 23.4375 16.9327 24 17.5385 24H19.9615C20.537 24 21 23.4984 21 22.875V1.12506C21 0.506316 20.537 6.69961e-05 19.9615 6.69961e-05C16.3918 6.69961e-05 10.3817 8.36723 17.1534 14.1047Z" />
  </symbol>
</svg>