<svg viewBox="0 0 24 24" fill="currentColor" xmlns="http://www.w3.org/2000/svg">
  <path d="M14.6329 0C13.0198 0 11.4727 0.640801 10.3321 1.78143C9.19148 2.92206 8.55068 4.46909 8.55068 6.08219V9.46849H5.29589C5.13247 9.46849 5 9.60097 5 9.76438V14.2356C5 14.399 5.13247 14.5315 5.29589 14.5315H8.55068V23.7041C8.55068 23.8675 8.68316 24 8.84658 24H13.3178C13.4812 24 13.6137 23.8675 13.6137 23.7041V14.5315H16.8973C17.0331 14.5315 17.1514 14.4391 17.1844 14.3074L18.3022 9.83615C18.3489 9.6494 18.2076 9.46849 18.0151 9.46849H13.6137V6.08219C13.6137 5.81189 13.7211 5.55266 13.9122 5.36152C14.1033 5.17039 14.3626 5.06301 14.6329 5.06301H18.0521C18.2155 5.06301 18.3479 4.93054 18.3479 4.76712V0.29589C18.3479 0.132475 18.2155 0 18.0521 0H14.6329Z" />
</svg>
