<svg viewBox="0 0 24 24" fill="currentColor" xmlns="http://www.w3.org/2000/svg">
    <path fill-rule="evenodd" clip-rule="evenodd" d="M0 5.5C0 4.67157 0.671573 4 1.5 4H22.5C23.3284 4 24 4.67157 24 5.5C24 6.32843 23.3284 7 22.5 7H1.5C0.671573 7 0 6.32843 0 5.5Z" />
    <path fill-rule="evenodd" clip-rule="evenodd" d="M0 12C0 11.1716 0.671573 10.5 1.5 10.5H22.5C23.3284 10.5 24 11.1716 24 12C24 12.8284 23.3284 13.5 22.5 13.5H1.5C0.671573 13.5 0 12.8284 0 12Z" />
    <path fill-rule="evenodd" clip-rule="evenodd" d="M0 18.5C0 17.6716 0.671573 17 1.5 17H22.5C23.3284 17 24 17.6716 24 18.5C24 19.3284 23.3284 20 22.5 20H1.5C0.671573 20 0 19.3284 0 18.5Z" />
</svg>