<svg viewBox="0 0 24 24" fill="currentColor" xmlns="http://www.w3.org/2000/svg">
  <path d="M23.4552 6.09609L20.9263 1.64453C20.7003 1.24492 20.2989 1 19.8703 1H4.12817C3.69955 1 3.2982 1.24492 3.0722 1.64453L0.543326 6.09609C-0.762024 8.39492 0.395257 11.5918 2.83451 11.957C3.00985 11.9828 3.1891 11.9957 3.36834 11.9957C4.52172 11.9957 5.54262 11.4371 6.24401 10.5734C6.94539 11.4371 7.97019 11.9957 9.11967 11.9957C10.2731 11.9957 11.294 11.4371 11.9953 10.5734C12.6967 11.4371 13.7215 11.9957 14.871 11.9957C16.0244 11.9957 17.0453 11.4371 17.7467 10.5734C18.452 11.4371 19.4729 11.9957 20.6223 11.9957C20.8055 11.9957 20.9808 11.9828 21.1562 11.957C23.6032 11.5961 24.7644 8.39922 23.4552 6.09609ZM20.6301 13.375C20.2405 13.375 19.8547 13.3105 19.4806 13.2117V17.5H4.51783V13.2117C4.14376 13.3063 3.758 13.375 3.36834 13.375C3.13454 13.375 2.89685 13.3578 2.66696 13.3234C2.44875 13.2891 2.23444 13.2332 2.02792 13.1688V21.625C2.02792 22.3855 2.58513 23 3.27482 23H20.7314C21.4211 23 21.9783 22.3855 21.9783 21.625V13.1688C21.7679 13.2375 21.5575 13.2934 21.3393 13.3234C21.1016 13.3578 20.8678 13.375 20.6301 13.375Z" />
</svg>